<svg xmlns="http://www.w3.org/2000/svg" viewBox="0 0 201.88 383.06"><defs><clipPath id="clippath"><path fill="none" d="M15.33 0h166.55v383.06H15.33z"></path></clipPath></defs><g clip-path="url(#clippath)"><g id="Group_1"><g><path id="Path_1" d="M178.78 360.44c-1.74-1.78-2.3-4.86-2.3-7.25v-18.93a8.81 8.81 0 0 0-2.5-6.51 9.667 9.667 0 0 0-2.14-1.57h9.68V283.3h-15.75c.67-.96 1.03-2.09 1.04-3.26a5.923 5.923 0 0 0-3.98-5.51 10.283 10.283 0 0 0-7.7-7.29c.14-.08.28-.17.41-.28 14.22-19.8 28.86-76.11 15.17-98.49-2.52-4.11-8.04-13.89-15.16-14.4 6.13-9.3 3.2-19.7.89-27.83-1.24-4.41-2.32-8.23-1.54-10.57.05-.13.06-.28.02-.41 4.78-7.81 6.93-17.24-.9-27.87a17.42 17.42 0 0 0-.58-3.44c-1.06-3.52-1.06-7.28.02-10.79v-.02c1.48-4.16.61-8.79-2.28-12.12 3.58-5.38 2.97-12.27 1.15-14 1.56-2.43 2.43-4.9-1.42-10.03-.41-.56-.79-1.14-1.14-1.73v-.11c-.4-6.46 1.56-11.94 3.27-16.79 2.36-6.64 4.39-12.36-2.08-16.57-5.05-3.3-11.58-.94-17.33 1.13-2.84 1.02-5.52 1.99-7.44 1.99-2.1 0-4.51-.93-7.3-2.01-5.64-2.19-12.63-4.91-20.63-.64-8.01-4.27-14.99-1.55-20.63.64-2.78 1.08-5.2 2.01-7.3 2.01-1.91 0-4.59-.97-7.43-1.99C57.15.84 50.63-1.52 45.56 1.79c-6.47 4.21-4.43 9.93-2.07 16.56 1.71 4.85 3.67 10.33 3.26 16.79v.11c-.35.6-.73 1.18-1.14 1.73-3.85 5.13-2.97 7.59-1.42 10.02-1.82 1.74-2.43 8.63 1.15 14.01a12.287 12.287 0 0 0-2.28 12.12v.02c1.08 3.52 1.09 7.27.02 10.79-.3 1.13-.5 2.28-.58 3.44-7.83 10.63-5.69 20.06-.91 27.87-.03.14-.02.28.03.41.78 2.35-.3 6.16-1.55 10.57-2.3 8.14-5.22 18.54.9 27.83-7.12.51-12.64 10.29-15.17 14.4-13.68 22.37.95 78.69 15.18 98.49.12.11.25.2.4.28-3.72.82-6.68 3.62-7.7 7.29a5.928 5.928 0 0 0-3.97 5.51c0 1.17.36 2.3 1.03 3.26H15.7v42.88h9.69c-.79.42-1.51.95-2.15 1.57a8.779 8.779 0 0 0-2.51 6.51v18.93c0 2.38-.56 5.46-2.3 7.25-2.05 2.11-4.16 5.11-2.5 7.91a6.176 6.176 0 0 0 4.82 3.39c.48 1.58 2.37 3.44 4.86 4.24-.36.59-1.38 1.02-1.38 2.87 0 2.82 1.84 4.21 3.8 4.21h141.15c1.95 0 3.8-1.39 3.8-4.21 0-1.85-1.02-2.28-1.39-2.87a7.528 7.528 0 0 0 4.86-4.24 6.154 6.154 0 0 0 4.82-3.39c1.67-2.8-.44-5.8-2.5-7.91m-15.66-83.86a4.15 4.15 0 0 1 1.92 3.46c0 1.18-.5 2.3-1.38 3.07l.19.19h-3.04c1.51-1.76 2.34-4 2.35-6.32 0-.14-.02-.27-.03-.41m-1.73.41a8.172 8.172 0 0 1-2.8 6.12l.19.2h-1.19a6.964 6.964 0 0 0 1.13-3.81 7.73 7.73 0 0 0-7.51-7.63c-.11-1-.31-1.99-.59-2.96a8.66 8.66 0 0 1 2.09-.25c4.69-.09 8.57 3.64 8.68 8.33m-5.72 6.32h-7.84a8.148 8.148 0 0 0 1.87-5.13c0-1.29-.3-2.56-.86-3.73.74-.32 1.54-.49 2.34-.5a5.67 5.67 0 0 1 5.78 5.55c0 1.37-.52 2.68-1.45 3.68l.16.13Zm-9.87 0h-9.49l.2-.21a6.47 6.47 0 0 1-2.31-4.93c.15-3.79 3.35-6.74 7.14-6.59 3.58.14 6.45 3.01 6.59 6.59 0 1.91-.86 3.71-2.33 4.93l.2.21Zm-15.48 0h-9.49l.19-.21a6.44 6.44 0 0 1-2.3-4.92c.14-3.79 3.33-6.74 7.12-6.6 3.59.14 6.46 3.01 6.6 6.6a6.51 6.51 0 0 1-2.3 4.93l.18.21Zm-20.82-3.81c.07-3.12 2.64-5.6 5.76-5.55.87 0 1.72.19 2.51.55-.53 1.15-.81 2.4-.82 3.67 0 1.88.67 3.69 1.87 5.13h-8.05l.17-.14c-.92-1-1.43-2.31-1.44-3.67m-.69 3.81H87.67a6.569 6.569 0 0 0 1.49-3.81c0-3.99-3.79-7.63-7.95-7.63-.14 0-.27.02-.4.02l-.08-.05c-2.23-1.41-2.19-3.35-2.14-5.8.06-1.07.02-2.14-.12-3.19-.25-1.91-.96-3.74-2.07-5.32 1.06-1.87 1.67-3.96 1.77-6.11-.09-1.22-.26-2.43-.5-3.63a85.26 85.26 0 0 1-1.34-21.69c.36-5.05 2.09-10.03 3.93-15.3 2.71-7.79 5.51-15.85 4.41-25.32-.02-.08-.04-.16-.07-.23 1.69.85 3.54 1.69 5.59 2.53.55.21 1.07.49 1.55.83a23.9 23.9 0 0 0 2.36 1.78c1.34.74 2.46 1.83 3.25 3.14.15.31.46.5.81.5h.14c.34 0 .65-.19.79-.5.8-1.31 1.92-2.39 3.26-3.14a23.9 23.9 0 0 0 2.36-1.78c.48-.34 1.01-.62 1.56-.83 2.04-.84 3.91-1.69 5.59-2.53-.03.07-.05.15-.06.23-1.1 9.47 1.7 17.53 4.4 25.32 1.84 5.27 3.57 10.26 3.93 15.3.48 7.26.03 14.55-1.34 21.69-.24 1.2-.41 2.41-.51 3.63.11 2.15.72 4.24 1.78 6.11-1.12 1.58-1.83 3.4-2.07 5.32-.13 1.06-.17 2.13-.12 3.19.06 2.45.1 4.39-2.14 5.8a.18.18 0 0 1-.07.05c-.14 0-.27-.02-.41-.02-4.15 0-7.95 3.64-7.95 7.63.08 1.4.6 2.73 1.49 3.81m-23.1 0h-8.04a8.091 8.091 0 0 0 1.87-5.13 8.786 8.786 0 0 0-.83-3.67c.79-.36 1.64-.55 2.51-.55 3.12-.06 5.7 2.42 5.77 5.55 0 1.36-.52 2.67-1.44 3.67l.16.13Zm-10.05 0h-9.48l.19-.21a6.48 6.48 0 0 1-2.32-4.93c.15-3.79 3.35-6.74 7.14-6.59 3.58.14 6.45 3.01 6.59 6.59 0 1.9-.85 3.7-2.3 4.92l.18.21Zm-15.49 0h-9.47l.19-.21a6.437 6.437 0 0 1-2.31-4.93c.14-3.79 3.33-6.74 7.12-6.6 3.59.14 6.46 3.01 6.6 6.6 0 1.9-.85 3.7-2.31 4.93l.18.21Zm-20.64-3.81c.07-3.12 2.65-5.6 5.78-5.55.81 0 1.6.17 2.34.5a8.923 8.923 0 0 0-.85 3.73c0 1.88.67 3.7 1.88 5.13h-7.85l.16-.13c-.93-1-1.45-2.31-1.45-3.68m15.33-62.08a.867.867 0 0 0-.99-.72c-.47.05-.8.47-.75.93v.01c.22 1.61.4 8.98.34 16.72-1.32-4.64-1.92-11.82-2.48-18.32-.68-7.95-1.26-14.82-2.93-17.5-3.11-4.97-5.16-24.41-.53-36.75.86.21 1.7.49 2.52.83.08.05.14.1.22.14.12.07.25.11.38.12 2.95 1.4 4.44 3.41 6 5.5.51.7 1.04 1.4 1.63 2.11.23.34.48.69.75 1.04.13.16.31.27.51.32 2.52 2.49 6.34 4.7 13.91 5.52 2.38 2.49 5.14 4.6 8.17 6.25a66.7 66.7 0 0 1-3 26.62c-1.87 5.37-4.88 10.46-5.27 15.72-.72 9.96 1.42 17.55 2.19 22.09.22 1.12.38 2.26.48 3.39.06 2.55-2.22 5.69-2.24 5.72a.83.83 0 0 0 .11 1 9.694 9.694 0 0 1 2.03 4.9c.12.97.15 1.95.1 2.93-.03 1.46-.67 3.04-.69 4.48a7.962 7.962 0 0 0-4.4-1.39c-3.38.14-6.39 2.2-7.75 5.3a8.845 8.845 0 0 0-7.74-5.3c-2.78.08-5.34 1.5-6.88 3.81-.24-.14-.48-.26-.72-.38.2-3.43 2.04-7.25 3.82-10.94 1.27-2.42 2.33-4.94 3.15-7.55 1.67-5.98.52-33.26.06-36.62m3.77-73.61c-.48-4.32-1.75-8.51-3.74-12.37-1.92-3.77-3.2-7.83-3.79-12.02-1.19-8.67-.18-11.56 3.7-15.15a26.11 26.11 0 0 0 7.68 7.2c.31.54.62 1.07.95 1.6 1.36 2.27 2.78 4.61 2.69 7.73a22.34 22.34 0 0 1-1.29 7.01 17.438 17.438 0 0 0-.87 9.24c.58 4.18 3.06 7.86 6.72 9.96.01.11.04.21.09.31 1.39 2.68 1.32 6.42.36 10.61-.91 4-3.65 9.76-.12 16.1-7.05-.99-9.46-3.17-11.38-5.7-2.93-4.96-2.28-11.59-1.15-16.47.51-2.66.56-5.38.16-8.06m14.4 4.61c.12.06.23.12.34.19a10.5 10.5 0 0 1 3.35 2.36c1.38 2.35 2.95 4.59 4.68 6.7 2.93 3.77 5.7 7.34 6.18 12.28-.43 2.23-.63 4.5-.59 6.77.03 2.15.38 4.29 1.04 6.34-18.46-6.81-16.39-15.35-15.17-24.9.46-3.53.89-6.91.16-9.73m.34-70.31c1.26.28 2.54.48 3.83.59.87 3.75-.22 7.69-2.89 10.46.36-3.71.04-7.46-.94-11.05m9.07 14.07h2.87v.89c0 .31.02.59.04.88-2.89-.06-12-.26-13.28-.27h-.32c-.27 0-.7.01-.84-.12a.863.863 0 0 1-.15-.6.62.62 0 0 1 .19-.53c.26-.17.57-.26.88-.25h10.61Zm-2.89-12.06c3.82 3.88 2.78 8.79 2.3 10.38h-3.3c1.05-3.35 1.39-6.89 1-10.38m38.4 10.38h-3.31c-.48-1.59-1.52-6.5 2.31-10.38-.4 3.49-.06 7.03 1 10.38m4.23-1.32a11.355 11.355 0 0 1-2.9-10.46c1.29-.11 2.57-.31 3.83-.59-.98 3.6-1.29 7.34-.93 11.05m1.19 3.01h1.28c.31 0 .62.08.88.25.14.14.21.34.19.53.02.21-.03.43-.15.6-.14.14-.57.13-.84.12h-.32c-1.27.01-10.4.21-13.28.27.02-.29.04-.58.04-.88v-.89h12.2Zm-12.28-1.7c-.07-.93-.25-1.85-.54-2.73h1.87c.05.92.19 1.84.43 2.73h-1.75Zm3.82-10.71H81.57c-.25-.31-.53-.61-.83-.9h.21c5.84-.06 11.65-.87 17.29-2.39a68.73 68.73 0 0 0 17.29 2.39h.21c-.29.29-.57.59-.83.9m-5.49 13.3c.18 1.98-.79 3.9-2.49 4.93-.7.42-1.48.68-2.29.76-.69.07-1.36.26-1.97.58-.38.23-.73.49-1.06.78-.87.89-2.04 1.44-3.28 1.55h-.14a5.269 5.269 0 0 1-3.29-1.55c-.33-.28-.68-.54-1.05-.78-.62-.32-1.3-.51-1.99-.58-.81-.08-1.59-.34-2.29-.76a5.222 5.222 0 0 1-2.49-4.93c0-5.17 1.08-6.26 1.99-6.26 1.28-.06 2.55.23 3.69.83 1.68.84 3.55 1.23 5.43 1.14h.14c1.88.1 3.74-.29 5.42-1.14 1.14-.6 2.42-.88 3.7-.83.89 0 1.98 1.09 1.98 6.26m-23.48-5.32c-.29.89-.47 1.8-.54 2.73h-1.75c.23-.9.37-1.81.42-2.73h1.87Zm-12.79 7.63c2.3.05 8.49.19 12.5.27a6.723 6.723 0 0 0 2.89 3.73c.91.56 1.93.92 3 1.04.47.04.94.16 1.37.36.29.19.56.4.83.62a6.78 6.78 0 0 0 4.43 1.95c.02 0 .05 0 .07-.01.02 0 .05.01.07.01 1.66-.09 3.24-.78 4.42-1.95.27-.22.54-.43.83-.62.44-.2.9-.32 1.38-.36 1.06-.12 2.09-.47 3-1.04 1.38-.85 2.4-2.18 2.88-3.72 4-.09 10.19-.23 12.5-.27 1.05 3.31.41 6.93-1.71 9.69a4.818 4.818 0 0 1-3.98 2.27c-.54 0-2.7-.04-4.35-.09h1.17c-3.78-.12-10.13-.32-16.15-.32-.03 0-.05 0-.07.02a.145.145 0 0 0-.07-.02c-6.02 0-12.37.19-16.15.32h1.16c-1.65.05-3.8.09-4.35.09a4.831 4.831 0 0 1-3.98-2.27 10.626 10.626 0 0 1-1.7-9.69m50.46 62.75c1.25 9.56 3.3 18.09-15.16 24.9.66-2.05 1.02-4.19 1.04-6.34.05-2.27-.15-4.54-.59-6.77.47-4.94 3.25-8.51 6.18-12.28a52.47 52.47 0 0 0 4.67-6.7c.95-1 2.09-1.81 3.36-2.36.12-.06.22-.12.33-.19-.73 2.82-.29 6.2.16 9.73m8.05-30.32c-.82-2.25-1.26-4.62-1.31-7.01-.08-3.12 1.34-5.46 2.7-7.73.32-.53.65-1.06.94-1.6 3.03-1.85 5.64-4.3 7.68-7.2 3.89 3.59 4.9 6.48 3.72 15.15-.59 4.19-1.88 8.25-3.8 12.02-2 3.86-3.26 8.05-3.74 12.37-.4 2.68-.35 5.4.15 8.06 1.13 4.87 1.78 11.51-1.14 16.47-1.92 2.53-4.34 4.71-11.39 5.7 3.54-6.34.79-12.11-.12-16.1-.95-4.19-1.03-7.94.36-10.61.05-.1.08-.2.09-.31 3.65-2.11 6.13-5.78 6.71-9.96.54-3.1.24-6.29-.86-9.24m5.3 44.05c.2-.05.37-.16.5-.32.27-.35.52-.7.76-1.04.59-.71 1.12-1.41 1.64-2.11 1.55-2.09 3.05-4.1 6-5.5a.89.89 0 0 0 .38-.12c.07-.05.14-.1.22-.14.82-.34 1.66-.62 2.52-.83 4.63 12.33 2.57 31.77-.53 36.75-1.68 2.68-2.26 9.55-2.93 17.5-.55 6.5-1.17 13.68-2.48 18.32-.06-7.74.12-15.11.34-16.72a.84.84 0 0 0-.74-.94h-.01a.89.89 0 0 0-1 .72c-.46 3.36-1.6 30.63.06 36.62.83 2.6 1.89 5.13 3.16 7.55 1.78 3.69 3.63 7.51 3.82 10.94-.25.12-.49.24-.72.38a8.558 8.558 0 0 0-6.88-3.81c-3.38.14-6.39 2.2-7.75 5.3a8.845 8.845 0 0 0-7.74-5.3c-1.57.02-3.11.5-4.41 1.39-.02-1.44-.65-3.02-.69-4.48-.05-.98-.02-1.96.1-2.93.2-1.79.9-3.48 2.02-4.9.26-.27.31-.68.12-1-.02-.04-2.3-3.17-2.24-5.72.1-1.14.26-2.27.48-3.39.78-4.54 2.91-12.13 2.19-22.09-.39-5.25-3.4-10.34-5.27-15.72a66.363 66.363 0 0 1-3-26.62 32.92 32.92 0 0 0 8.17-6.25c7.57-.82 11.38-3.03 13.91-5.52m-16.71-28.15c-1.15 5.44-5.37 9.24-8.25 12.93a21.608 21.608 0 0 0-4.27 8.45c-1.98-6.75-5.33-13.09-8.31-15.63 1.16-2.04 2.16-3.98 3.01-5.82.88-1.06 1.85-2.03 2.91-2.9 3.61-3.23 9.86-8.35 11.94-16.75 2.72 2.76 5.38 8.44 2.97 19.73m-22.02 6.98c4.29 3.57 8.95 16.03 8.66 25.14-.24 8.09-3.51 10.36-6.4 12.35-1.01.8-1.79 1.85-2.26 3.05a7.274 7.274 0 0 0-2.26-3.05c-2.88-2-6.15-4.26-6.4-12.35-.29-9.12 4.37-21.57 8.66-25.14m-2.26-7.09a3.82 3.82 0 0 0-.23-.51c-7.72-16.96-1.91-25.24 1.37-29.9.42-.6.8-1.14 1.11-1.64.31.5.69 1.04 1.11 1.64 3.28 4.66 9.09 12.94 1.38 29.9-.09.16-.16.33-.23.51-.65 1.41-1.41 2.88-2.26 4.4-.84-1.52-1.6-3-2.26-4.4m8.24-4.17c5.66-15.02 1.21-22.98-1.75-27.18-.48-.65-.92-1.33-1.32-2.03 4.78.04 9.49.19 12.68.28 4.53 16.14-4.26 24.12-9.61 28.93M82.61 110.5c3.19-.1 7.9-.24 12.68-.28-.4.7-.85 1.38-1.33 2.03-2.96 4.2-7.41 12.16-1.74 27.18-5.35-4.81-14.13-12.79-9.61-28.93m8.49 30.23c1.06.87 2.03 1.84 2.9 2.89.86 1.84 1.86 3.78 3.02 5.82-2.98 2.55-6.33 8.88-8.32 15.63-.78-3.1-2.24-5.98-4.27-8.45-2.87-3.69-7.1-7.49-8.25-12.93-2.39-11.29.25-16.97 2.98-19.73 2.07 8.41 8.34 13.52 11.94 16.75M63.12 281.75c.27.54.6 1.05.99 1.51h-1.98c.39-.47.72-.97.99-1.51m70.15 0c.27.54.61 1.05.99 1.51h-1.98c.39-.46.72-.97.99-1.51m35.85-112.45c12.78 20.89-1.62 73.2-15.17 94.83 1.06-7.4 4.99-19.83 8.81-31.92 3.63-11.49 7.06-22.35 7.99-28.65.06-.47-.27-.9-.75-.96a.875.875 0 0 0-.99.72c-2.17 15.34-17.73 48.4-19.64 62.18-.66-1.56-1.41-3.12-2.16-4.67a46.469 46.469 0 0 1-3.05-7.28c-.62-2.19-.95-7.64-1.09-13.67 2.45-4.14 4.2-14.82 4.97-23.75.59-7.1 2.05-14.43 3.52-16.77 3.62-5.79 5.58-28.62.03-40.76.29-.27.57-.55.84-.82 7.49-.53 14.57 8.05 16.69 11.52m-14.44-42.66c3.02 10.71 6.76 21.18-8.64 31.34-1.77.63-3.3 1.79-4.39 3.31.16-3.32-.22-6.64-1.13-9.83-.72-2.44-1.04-4.98-.96-7.53.46-4.14 1.67-8.16 3.59-11.85.71-1.54 1.44-3.1 2.08-4.89 2.71-2.83 5.25-5.82 7.6-8.96.33 2.86.95 5.68 1.84 8.41m-1.08-36.6c8.32 13.7.88 24.08-6.77 31.18.09-.52.18-1.06.25-1.62 1.29-9.47-.05-12.83-4.54-16.87.46-.83.85-1.69 1.17-2.58 6.38-4.4 9.04-7.38 9.89-10.11M45.13 17.8c-2.39-6.71-3.97-11.14 1.39-14.62C50.84.37 56.9 2.56 62.26 4.5c3 1.08 5.82 2.1 8.05 2.1 2.45 0 5.13-1.04 7.97-2.14 5.64-2.19 12.04-4.67 19.45-.54.16.09.34.12.51.11.18.02.36-.02.52-.11 7.41-4.13 13.81-1.65 19.45.54 2.83 1.11 5.51 2.14 7.96 2.14 2.23 0 5.06-1.02 8.06-2.1 5.35-1.94 11.42-4.12 15.73-1.32 5.35 3.48 3.78 7.91 1.4 14.62-1.43 4.02-3.01 8.46-3.35 13.58-.45-1.33-.73-2.72-.84-4.12-.15-2.13.73-4.94 1.59-7.67 1.62-5.15 3.29-10.47-.78-13.46-3.57-2.63-8.31-.43-10.86.75-.43.2-.79.36-1.06.46-.42.16-.86.34-1.29.51-3.14 1.24-6.7 2.64-10.36 2.36-.99-.54-2.01-1.11-3.05-1.71-4.57-2.6-9.3-5.29-13.83-5.29-3.34.03-6.59 1.12-9.27 3.12-2.68-2-5.92-3.09-9.27-3.12-4.54 0-9.27 2.69-13.84 5.29-1.03.59-2.04 1.16-3.04 1.71-3.67.28-7.23-1.12-10.36-2.36-.44-.17-.88-.34-1.3-.51-.26-.1-.62-.27-1.06-.46-2.54-1.19-7.29-3.39-10.86-.75-4.07 2.99-2.4 8.31-.79 13.46.85 2.72 1.73 5.53 1.59 7.67-.11 1.4-.4 2.79-.85 4.12-.33-5.12-1.92-9.57-3.34-13.58m87.6 1.02c-1.75-.01-3.41.8-4.48 2.18-.09-.14-.16-.27-.25-.39-.59-.96-1.2-1.93-1.86-2.9a9.629 9.629 0 0 1 6.58-2.6c5.09-.1 9.3 3.94 9.41 9.03a8.987 8.987 0 0 1-4.26 7.56c-.21-.19-.42-.37-.63-.56-.74-.66-1.53-1.35-2.34-2.1 2.01-.8 3.34-2.74 3.37-4.9-.07-3-2.56-5.38-5.56-5.32m-7.59-2.53a17.94 17.94 0 0 0-10.35-7.3c-4.32-1.07-7.35.02-10.28 1.07-1.95.83-4.04 1.3-6.16 1.39h-.14c-2.12-.09-4.21-.56-6.17-1.39C89.1 9 86.07 7.92 81.75 8.99a18.008 18.008 0 0 0-10.38 7.3c-1.06-.94-2.3-1.67-3.63-2.15 2.88-1.15 5.66-2.54 8.31-4.15 4.37-2.49 8.88-4.26 12.94-4.26 3.12 0 6.87 1.37 8.55 3.11.42.34 1.02.34 1.44 0 1.69-1.74 5.43-3.11 8.55-3.11 4.06 0 8.58 1.78 12.94 4.26 2.65 1.61 5.43 3 8.31 4.15-1.33.48-2.57 1.21-3.63 2.15M61.59 29.05c-.8.75-1.59 1.44-2.33 2.1-.22.19-.42.37-.63.56a8.954 8.954 0 0 1-4.26-7.56 9.231 9.231 0 0 1 9.41-9.03c2.44 0 4.79.93 6.58 2.6-.66.97-1.26 1.94-1.86 2.9-.08.12-.16.25-.25.39a5.618 5.618 0 0 0-4.47-2.18c-3-.06-5.48 2.32-5.55 5.32.02 2.16 1.35 4.1 3.36 4.9M47.07 61.71a.8.8 0 0 0 .11-1.11c-3.56-4.66-1.43-11.1-.08-12.39.29-.28.33-.73.1-1.06h.01c-1.8-2.66-1.86-3.06-1.86-5.34 0-.79.88-2.36 1.82-4.02.36-.65.75-1.33 1.12-2.05.09-.1.16-.23.2-.36 1.41-2.46 2.29-5.18 2.61-8 .17-2.43-4.74-13.72.55-18.23 3.31-2.82 11.02 1.71 17.29 2.68a16.67 16.67 0 0 1-5.3 1.55c-.09 0-.17.03-.25.06-5.88.1-10.63 4.83-10.76 10.71a10.6 10.6 0 0 0 4.74 8.77 14.523 14.523 0 0 0-4.46 8.21c-.68 4.09-.27 7.44 1.11 9.66-1.92 1.54-7.92 10.82-.5 23.36.47.81.95 1.65 1.42 2.55.16.29.46.47.79.46.14 0 .27-.03.4-.09.42-.2.59-.69.4-1.11 0 0 0-.02-.01-.03a32.423 32.423 0 0 1-3.96-9.83c-1.75-6.98 2.6-12.39 4.53-13.36.38-.18.75-.39 1.1-.63.36-.27.44-.78.17-1.14-.01-.01-.02-.03-.03-.04a.883.883 0 0 0-1.23-.13c-.17.13-5.44-8.77 3.37-18.42.88-.97 1.96-1.9 3.09-2.91h.1l.25-.33c.83-.77 1.69-1.59 2.52-2.5a37.69 37.69 0 0 0 3.61-5.17c2.84-4.55 5.78-8.46 12.17-10.05 3.79-.93 6.43.81 9.23 1.81 2.06.74 4.18 1.9 6.78 1.9.02 0 .05 0 .07-.02.02.01.05.02.07.02 2.6 0 4.72-1.16 6.79-1.9 2.79-1 5.44-2.74 9.22-1.81 6.4 1.59 9.34 5.5 12.17 10.05 1.06 1.82 2.27 3.55 3.62 5.17.83.92 1.69 1.73 2.51 2.5l.25.33h.1c1.13 1.02 2.2 1.94 3.08 2.91 8.81 9.66 3.55 18.56 3.38 18.42a.905.905 0 0 0-1.24.13c-.29.35-.24.87.12 1.16a7.355 7.355 0 0 0 1.12.65c1.94.97 6.29 6.38 4.55 13.36-.77 3.47-2.11 6.79-3.97 9.83a.83.83 0 0 0 .36 1.12s.02 0 .03.01a.912.912 0 0 0 1.19-.37c.46-.9.95-1.74 1.43-2.55 7.41-12.54 1.41-21.82-.5-23.36 1.36-2.23 1.78-5.58 1.1-9.66-.52-3.16-2.09-6.05-4.46-8.21 2.94-1.95 4.72-5.24 4.75-8.78-.12-5.88-4.87-10.61-10.75-10.71-.08-.03-.17-.05-.25-.06-1.84-.22-3.64-.74-5.31-1.55 6.26-.97 13.98-5.5 17.29-2.68 5.28 4.51.39 15.8.55 18.23.31 2.82 1.2 5.54 2.61 8 .03.14.1.26.19.36.37.72.76 1.4 1.12 2.05.94 1.66 1.82 3.23 1.82 4.02 0 2.28-.07 2.68-1.87 5.33h.01a.82.82 0 0 0 .11 1.06c1.34 1.28 3.47 7.72-.09 12.39-.26.34-.21.82.11 1.11.19.17 4.45 4.11 2.31 10.98v.02c-1.55 5.37-1.54 8.84-.86 11.63 1.02 4.28-.03 8.4-6.18 11.76.06-.69.09-1.39.08-2.08-.12-5.72-3.21-10.99-6-12.6a.918.918 0 0 0-1.21.29c-.24.39-.13.9.26 1.14.01 0 .03.02.04.02 2.08 1.2 5.02 5.76 5.14 11.19.1 3.89-1.26 9.37-7.68 14.39.81-2.75.53-5.99-2.68-10.47a.899.899 0 0 0-1.22-.22c-.39.25-.5.76-.25 1.15 0 .01.01.02.02.03 4.54 6.33 2.17 9.56-.08 13.31-1.42 2.36-3.86 5.04-3.77 8.62.09 3.45 1.61 5.59 2.21 7.48.75 2.31 3.98 9.26-7.37 16.62.08-.29.14-.58.22-.87 2.78-13.15-1.39-19.32-4.73-22.04.53-3.81.28-7.69-.76-11.4.5.01.89.02 1.13.02a6.645 6.645 0 0 0 5.43-2.99c2.35-3.64 3.1-8.09 2.07-12.3.47-.05.91-.25 1.26-.56a2.4 2.4 0 0 0 .68-1.82c.03-.67-.25-1.32-.75-1.77a2.98 2.98 0 0 0-1.63-.69c0-2.04.97-2.5 2.5-3.19a9.21 9.21 0 0 0 2.46-1.48c3.84-3.45 3.46-9.99 1.22-13 4.21-7.31-1.41-14.51-5.06-17.35a.914.914 0 0 0-1.24.12c-.3.35-.25.87.09 1.17 0 0 .02.02.03.02 3.33 2.59 8.51 9.19 4.35 15.67-5.42 8.46-29.29 2.97-30.81 2.34-.14-.05-.28-.07-.42-.06-.14-.01-.29 0-.42.06-1.51.63-25.38 6.12-30.81-2.34-4.15-6.48 1.04-13.09 4.35-15.67.36-.28.43-.8.15-1.17l-.02-.02a.905.905 0 0 0-1.24-.12c-3.65 2.84-9.27 10.04-5.06 17.35-2.24 3-2.63 9.54 1.22 13 .74.62 1.57 1.11 2.46 1.48 1.52.69 2.5 1.15 2.5 3.19-.6.06-1.17.3-1.64.69-.49.45-.76 1.1-.74 1.77-.04.67.2 1.34.68 1.82.35.32.79.51 1.26.56-1.04 4.21-.29 8.66 2.06 12.3a6.627 6.627 0 0 0 5.42 2.99c.26 0 .65 0 1.14-.02a27.778 27.778 0 0 0-.75 11.4c-3.34 2.73-7.51 8.89-4.72 22.04.06.3.14.58.21.87-11.35-7.35-8.11-14.3-7.37-16.62.61-1.88 2.13-4.02 2.22-7.48.08-3.58-2.35-6.25-3.77-8.62-2.26-3.74-4.62-6.98-.09-13.31.27-.37.18-.89-.19-1.16-.01 0-.02-.02-.03-.02a.909.909 0 0 0-1.22.22c-3.21 4.47-3.49 7.72-2.68 10.47-6.43-5.02-7.77-10.49-7.68-14.39.12-5.43 3.06-9.99 5.15-11.19.4-.23.54-.73.32-1.13 0-.01-.01-.02-.02-.03a.918.918 0 0 0-1.21-.29c-2.78 1.61-5.87 6.88-6 12.6-.01.69 0 1.39.07 2.08-6.15-3.36-7.2-7.48-6.17-11.76.67-2.78.68-6.25-.87-11.63v-.02c-2.14-6.87 2.13-10.81 2.31-10.98M42.9 90.06c.86 2.73 3.52 5.71 9.88 10.11.32.89.71 1.75 1.17 2.58-4.48 4.04-5.83 7.4-4.54 16.87.08.56.16 1.1.26 1.62-7.65-7.1-15.09-17.48-6.77-31.18m-1.08 36.6c.9-2.73 1.51-5.55 1.84-8.41 2.35 3.14 4.89 6.13 7.6 8.96.65 1.78 1.36 3.35 2.08 4.89 1.92 3.7 3.13 7.71 3.58 11.85.09 2.54-.23 5.09-.95 7.53a30.48 30.48 0 0 0-1.13 9.83 9.254 9.254 0 0 0-4.39-3.31c-15.39-10.16-11.66-20.63-8.64-31.34m-14.44 42.66c2.12-3.47 9.2-12.06 16.69-11.52.27.27.56.55.84.82-5.55 12.14-3.58 34.97.02 40.76 1.47 2.35 2.92 9.68 3.52 16.77.76 8.92 2.52 19.6 4.97 23.74-.14 6.03-.48 11.48-1.09 13.67-.81 2.51-1.83 4.94-3.05 7.28-.76 1.54-1.51 3.11-2.16 4.67-1.92-13.78-17.48-46.84-19.64-62.18a.875.875 0 0 0-.99-.72c-.47.06-.8.49-.75.96.92 6.29 4.35 17.15 7.98 28.65 3.83 12.09 7.75 24.52 8.81 31.92-13.54-21.63-27.95-73.94-15.16-94.83m16.46 99.32c.7 0 1.4.08 2.09.25-.28.97-.48 1.96-.59 2.96a7.742 7.742 0 0 0-7.5 7.63c0 1.35.4 2.68 1.13 3.81h-1.19l.19-.2a8.214 8.214 0 0 1-2.79-6.12c.1-4.69 3.97-8.42 8.67-8.33m-10.41 7.92c0 .13-.03.27-.03.41.01 2.32.85 4.56 2.36 6.32h-3.04l.19-.19c-.88-.78-1.39-1.9-1.39-3.07 0-1.4.73-2.71 1.91-3.46m-14.3 45.83v-35.73h159.05v35.73H98.65v3.78h4.59c3.65 0 5.92 3.29 5.92 8.6v28.96c0 6.38-8.28 7.68-10.5 7.68h-.01c-2.21 0-10.49-1.3-10.49-7.68v-28.96c0-5.3 2.26-8.6 5.91-8.6h4.58v-3.78H19.08Zm140.48 40.63c1.34 2.43 2.04 3.89.95 5.74a6.87 6.87 0 0 1-4.39 2.4c-2.05.42-3.61.64-8.05-2.34.99-2.45-.18-4.58-1.32-6.64a12.059 12.059 0 0 1-2.01-5.97v-21.95c-.03-2.73-1.12-5.33-3.05-7.26h8.88c1.61.09 3.13.79 4.23 1.97 1.61 1.6 2.52 3 2.52 5.29v21.95c.13 2.43.9 4.77 2.23 6.81m-30.12 4.27c-.06.53-.24 1.03-.53 1.48-.55.92-2.82 2.08-6.13 2.5-2.64.33-7.21.53-12.51-4.49.39-.97.58-2 .58-3.04v-28.97c0-3.84-1.13-6.03-3.06-7.77h11.2c1.64.05 3.2.75 4.33 1.95a6.677 6.677 0 0 1 2.42 5.31v21.96c.12 2.43.89 4.78 2.24 6.81a9.442 9.442 0 0 1 1.47 3.75.81.81 0 0 0-.01.51M124.16 327h.31c-.09.07-.22.07-.31 0m3.76 29.21v-21.95c.05-2.7-.97-5.31-2.84-7.26h10.38c1.71.11 3.33.81 4.57 1.99 1.65 1.62 2.59 3.03 2.59 5.27v21.96c.12 2.43.89 4.78 2.23 6.81 1.34 2.43 2.04 3.89.93 5.74-.58.99-2.48 2.2-5.27 2.54-2.48.32-4.03.1-8.9-4.56-.2-1.63-.78-3.19-1.69-4.56a12.059 12.059 0 0 1-2.01-5.97m12.88-29.21h.36c-.11.07-.25.07-.36 0m15.22 0h.34c-.1.07-.24.07-.34 0m-69.04 39.77c-5.3 5.02-9.87 4.82-12.51 4.49-3.29-.42-5.57-1.57-6.13-2.5-.28-.45-.46-.95-.52-1.48.05-.17.04-.35-.02-.51.22-1.34.73-2.62 1.49-3.75 1.33-2.03 2.1-4.38 2.22-6.81v-21.96c-.05-2.05.84-4 2.42-5.31a6.3 6.3 0 0 1 4.34-1.95h11.2c-1.93 1.75-3.06 3.93-3.06 7.77v28.96a7.94 7.94 0 0 0 .58 3.04m-37.79 2.06c-4.44 2.97-6 2.76-8.05 2.34a6.87 6.87 0 0 1-4.38-2.4c-1.1-1.85-.4-3.32.95-5.74 1.33-2.03 2.1-4.38 2.22-6.81v-21.96c0-2.28.93-3.69 2.54-5.29a6.19 6.19 0 0 1 4.22-1.97h8.88a10.413 10.413 0 0 0-3.05 7.26v21.95c-.13 2.13-.82 4.19-2.01 5.97-1.14 2.06-2.31 4.19-1.32 6.64m-8.25-41.83h.34c-.1.07-.24.07-.34 0m11.49 36.02a13.67 13.67 0 0 0 2.23-6.81v-21.96c0-2.24.95-3.65 2.6-5.27a7.252 7.252 0 0 1 4.57-1.99H72.2a10.214 10.214 0 0 0-2.84 7.26v21.95c-.13 2.13-.82 4.19-2 5.97-.91 1.37-1.49 2.93-1.7 4.56-4.87 4.66-6.42 4.87-8.89 4.56-2.79-.34-4.7-1.56-5.28-2.54-1.1-1.85-.4-3.32.94-5.74m3.71-36.02h.35c-.11.07-.24.07-.35 0m16.68 0h.31c-.09.07-.22.07-.31 0m-50.66 41.84c.4.61.91 1.13 1.5 1.54-2.89-.53-4.24-1.69-4.96-2.93-.95-1.58.18-3.68 2.25-5.8 1.88-1.94 2.79-5.37 2.79-8.46v-18.93c0-2.2-.15-3.15 1.17-4.46 1.3-1.19 2.9-2 4.62-2.35-.3.17-.57.39-.81.65a8.374 8.374 0 0 0-2.5 6.16v20.82c0 2.36-1.29 4.31-2.55 6.18-1.57 2.35-3.18 4.78-1.52 7.57m2.31-.88c-1.05-1.77-.17-3.26 1.48-5.73 1.33-2 2.83-4.27 2.83-7.15v-20.82c0-1.97.67-2.81 1.98-4.12 2.56-2.52 4.78-3.16 6.89-3.14h2.69c-1.9 1.94-2.97 4.54-2.98 7.26v21.96c-.13 2.13-.82 4.19-2 5.97-1.27 2.3-2.58 4.67-.92 7.46.2.32.43.61.71.87-1.95.89-4.19.93-6.18.13a.668.668 0 0 0-.31-.1 8.068 8.068 0 0 1-4.19-2.6m144.76 11.74H28.03c-.98 0-1.24-1.04-1.24-1.67s.26-1.67 1.24-1.67h141.15c.97 0 1.23 1.05 1.23 1.67s-.26 1.67-1.23 1.67m3.6-11.74a7.982 7.982 0 0 1-4.19 2.6c-.11 0-.22.04-.31.1-1.99.8-4.22.76-6.17-.13.27-.26.5-.55.7-.87 1.66-2.8.35-5.17-.92-7.46a12.059 12.059 0 0 1-2.01-5.97v-21.95c0-2.72-1.07-5.33-2.98-7.26h2.69c2.11-.02 4.33.62 6.89 3.14 1.32 1.31 1.98 2.15 1.98 4.12v20.82c0 2.88 1.51 5.15 2.84 7.15 1.65 2.47 2.53 3.96 1.48 5.73m5.78-.5c-.73 1.23-2.08 2.4-4.97 2.93.6-.41 1.11-.93 1.5-1.54 1.66-2.8.04-5.22-1.52-7.58-1.25-1.88-2.55-3.82-2.55-6.18v-20.82c.06-2.31-.85-4.54-2.5-6.16-.23-.26-.51-.48-.81-.65 1.73.34 3.33 1.16 4.63 2.35 1.32 1.31 1.18 2.26 1.18 4.46v18.93c0 3.09.89 6.52 2.78 8.46 2.08 2.13 3.2 4.23 2.26 5.8" class="cls-3"></path><path id="Path_2" d="M114.87 45.64a3.744 3.744 0 0 0 7.48.3 3.744 3.744 0 0 0-3.59-3.89h-.15a3.68 3.68 0 0 0-3.74 3.6" class="cls-3"></path><path id="Path_3" d="M124.06 45.64a5.5 5.5 0 0 1-5.68 5.32c-2.9-.1-5.23-2.42-5.32-5.32a5.5 5.5 0 0 1 5.68-5.32c2.9.1 5.23 2.42 5.32 5.32m2.53 3.71c-.76.15-1.52.34-2.29.54.42-.52.75-1.1 1.01-1.71.38.44.81.84 1.28 1.18M99.93 34.98c-.35.29-.4.82-.11 1.17l.02.02c2.22 2.42 8.03 3.79 14.78 3.62-.72.45-1.36 1.02-1.89 1.69 0 0-.01.01-.01.03-.46.57-.89 1.17-1.27 1.8-1.65 2.54-2.7 3.73-3.13 3.54a.893.893 0 0 0-1.17.41c-.2.42-.02.91.4 1.11 0 0 .02 0 .03.01.26.12.53.18.82.18 1.05 0 2.05-.9 2.95-2.05.17 1.26.69 2.45 1.5 3.43a8.08 8.08 0 0 0-4.97 1.59.83.83 0 0 0-.13 1.17s.01.02.02.02c.17.19.42.31.68.31.2 0 .4-.07.56-.19 1.69-1.32 4.35-1.58 6.98-.67h.03c.82.3 1.68.45 2.55.45 1.99-.1 3.96-.44 5.87-1.01 3.48-.87 6.78-1.7 8.39.37.3.38.84.46 1.23.17.37-.26.46-.77.2-1.14 0-.01-.02-.02-.03-.04a5.268 5.268 0 0 0-4.39-1.98c-2.48-.56-4.02-2.47-4.02-3.93 0-.11-.02-.23-.07-.33-.36-2.46-2-4.54-4.31-5.47 5.16-.45 11.65-.58 13.7 2.52.16.25.44.4.74.4.17 0 .33-.05.47-.13.39-.23.52-.74.29-1.13 0-.01-.01-.02-.02-.04-3.04-4.61-12.19-5.66-18.25-5.02l-.26.03c-8.6.89-15.03 1.25-16.92-.82a.892.892 0 0 0-1.24-.08" class="cls-3"></path><path id="Path_4" d="M116.28 32.11c.12 0 .25-.03.36-.07 2.27-1 7.12-5.57 8.31-8.18.19-.42 0-.91-.42-1.1-.01 0-.03-.01-.04-.02-.44-.19-.95 0-1.16.43-.99 2.19-6.76 6.48-8.67 7.33-.42.17-.62.64-.46 1.06 0 .02.02.04.02.05.14.32 1.71.5 2.05.5" class="cls-3"></path><path id="Path_5" d="M77.88 49.23a3.586 3.586 0 0 0 3.44-3.75 3.586 3.586 0 0 0-3.75-3.44 3.606 3.606 0 0 0-3.45 3.59 3.675 3.675 0 0 0 3.75 3.6" class="cls-3"></path><path id="Path_6" d="M90.43 33.6c.48 0 .87-.37.88-.84.3-.92 1.17-1.53 2.13-1.5.58 0 .84.27 1.36.89a4.046 4.046 0 0 0 3.38 1.77h.14a3.99 3.99 0 0 0 3.37-1.77c.52-.62.78-.89 1.36-.89.97-.03 1.84.58 2.14 1.5a.882.882 0 0 0 1.76 0c-.24-2-1.89-3.52-3.9-3.59-1.04-.1-2.07.32-2.73 1.13-.41.71-1.17 1.15-1.99 1.14-.03 0-.05.02-.07.02s-.05-.02-.07-.02c-.82.01-1.59-.42-2-1.14a3.11 3.11 0 0 0-2.73-1.13c-2.01.07-3.66 1.6-3.89 3.59 0 .47.4.85.88.84" class="cls-3"></path><path id="Path_7" d="M69.9 49.36c.47-.34.9-.74 1.28-1.18.25.62.59 1.19 1.01 1.71-.77-.2-1.53-.38-2.3-.53m8.04-9a5.394 5.394 0 0 1 5.5 5.28c.12 3.04-2.24 5.6-5.28 5.72-3.04.12-5.6-2.24-5.72-5.28a5.501 5.501 0 0 1 5.28-5.72h.22m-17.79 1.67a.898.898 0 0 0 1.22-.25c2.04-3.1 8.53-2.97 13.69-2.53-2.3.94-3.94 3.02-4.3 5.48-.05.11-.08.22-.08.34 0 1.47-1.53 3.37-4.01 3.93-1.7-.08-3.34.65-4.4 1.98-.28.35-.22.87.14 1.15.01.01.03.02.04.03.39.28.93.21 1.23-.17 1.61-2.07 4.9-1.25 8.38-.36 1.91.56 3.89.9 5.88 1.01.87 0 1.73-.15 2.54-.45h.04c2.63-.92 5.29-.66 6.98.66a.923.923 0 0 0 1.25-.12.83.83 0 0 0-.11-1.18l-.01-.01a8.114 8.114 0 0 0-4.96-1.59c.81-.98 1.33-2.17 1.49-3.44.91 1.15 1.9 2.06 2.97 2.06.28 0 .56-.06.81-.19a.831.831 0 0 0 .42-1.12.893.893 0 0 0-1.17-.41c-.43.2-1.49-1-3.12-3.54-.38-.63-.81-1.23-1.27-1.8h-.02a6.993 6.993 0 0 0-1.88-1.72c6.75.17 12.56-1.2 14.77-3.62.31-.33.29-.85-.05-1.16a.138.138 0 0 0-.04-.03.912.912 0 0 0-1.24.08c-1.91 2.08-8.33 1.71-16.93.82l-.25-.03c-6.06-.62-15.22.41-18.26 5.02-.25.38-.15.89.24 1.14.01 0 .02.01.03.02" class="cls-3"></path><path id="Path_8" d="M79.86 32.03c.11.05.24.08.36.07.34 0 1.91-.17 2.05-.5.19-.41.02-.89-.39-1.09-.02 0-.04-.02-.05-.02-1.9-.84-7.68-5.14-8.67-7.33a.895.895 0 0 0-1.16-.43.84.84 0 0 0-.47 1.09v.02c1.19 2.61 6.04 7.18 8.32 8.18" class="cls-3"></path><path id="Path_9" d="M95.59 304.39c0-1.51 1.22-2.73 2.73-2.73s2.73 1.22 2.73 2.73-1.22 2.73-2.73 2.73-2.73-1.22-2.73-2.73" class="cls-3"></path><path id="Path_10" d="m99.41 308.6 2.26 8.8s.67 3.02 2.93 2.1c2.28-.9.59-3.53.59-3.53l-4.65-7.84c-.35.22-.73.37-1.13.46" class="cls-3"></path><path id="Path_11" d="m100.94 307.87 5.45 7.27s1.78 2.54 3.52.83c1.74-1.7-.8-3.49-.8-3.49L101.8 307c-.24.34-.53.63-.87.87" class="cls-3"></path><path id="Path_12" d="m102.07 306.61 7.83 4.62s2.61 1.68 3.57-.58c.96-2.25-2.08-2.91-2.08-2.91l-8.86-2.26c-.08.4-.24.79-.46 1.13" class="cls-3"></path><path id="Path_13" d="M102.7 304.39c0 .21-.03.41-.07.62l9.01 1.29s3.06.54 3.08-1.91-3.04-1.9-3.04-1.9l-9.04 1.29c.03.2.05.4.05.61" class="cls-3"></path><path id="Path_14" d="m102.55 303.31 8.81-2.26s3.03-.67 2.12-2.93c-.91-2.26-3.54-.6-3.54-.6l-7.86 4.65c.23.34.39.73.48 1.13" class="cls-3"></path><path id="Path_15" d="m101.82 301.77 7.28-5.44s2.54-1.78.83-3.52c-1.7-1.75-3.5.81-3.5.81l-5.49 7.3c.34.23.64.52.88.86" class="cls-3"></path><path id="Path_16" d="m100.54 300.64 4.63-7.81s1.67-2.61-.58-3.57-2.93 2.08-2.93 2.08l-2.27 8.83c.4.09.79.25 1.14.47" class="cls-3"></path><path id="Path_17" d="M97.71 300.08a3.18 3.18 0 0 1 1.24 0l1.28-8.99s.54-3.05-1.9-3.07-1.91 3.04-1.91 3.04l1.29 9.02Z" class="cls-3"></path><path id="Path_18" d="m91.46 292.8 4.65 7.85c.35-.22.73-.38 1.14-.47l-2.26-8.79s-.67-3.03-2.94-2.11c-2.27.92-.58 3.53-.58 3.53" class="cls-3"></path><path id="Path_19" d="m87.53 296.3 7.31 5.47c.24-.34.53-.63.87-.86l-5.46-7.27s-1.78-2.55-3.52-.83c-1.75 1.71.81 3.49.81 3.49" class="cls-3"></path><path id="Path_20" d="m85.25 301.05 8.84 2.26c.09-.4.25-.78.47-1.13l-7.83-4.64s-2.62-1.66-3.57.58c-.95 2.24 2.08 2.93 2.08 2.93" class="cls-3"></path><path id="Path_21" d="m84.96 306.29 9.05-1.29c-.04-.2-.06-.41-.06-.61 0-.21.02-.41.05-.62l-9-1.29s-3.06-.54-3.09 1.9c-.01 2.44 3.05 1.9 3.05 1.9" class="cls-3"></path><path id="Path_22" d="M83.17 310.66c.92 2.26 3.54.59 3.54.59l7.86-4.65a3.57 3.57 0 0 1-.47-1.14l-8.81 2.26s-3.03.67-2.12 2.93" class="cls-3"></path><path id="Path_23" d="M86.73 315.97c1.71 1.75 3.49-.81 3.49-.81l5.49-7.29c-.34-.23-.63-.52-.87-.86l-7.29 5.45s-2.54 1.78-.82 3.52" class="cls-3"></path><path id="Path_24" d="M92.04 319.51c2.26.97 2.93-2.07 2.93-2.07l2.27-8.84a3.9 3.9 0 0 1-1.14-.46l-4.63 7.8s-1.67 2.63.57 3.57" class="cls-3"></path><path id="Path_25" d="M98.94 308.69a3.18 3.18 0 0 1-1.23 0l-1.29 8.99s-.54 3.05 1.9 3.08c2.45.01 1.9-3.05 1.9-3.05l-1.29-9.03Z" class="cls-3"></path><path id="Path_26" d="M128.07 69.06a.658.658 0 0 0-.9-.1c-6.35 5.07-12.39 4.66-22.37 3.99-.33-.02-.67-.05-1-.07 10.71-.36 17.54-1.75 21.72-6.54.23-.26.21-.66-.06-.89a.644.644 0 0 0-.9.06c-3.89 4.45-10.45 5.75-20.81 6.1C112 70.4 118.4 67.55 122 63.42c.23-.26.22-.65-.04-.89 0 0-.01 0-.02-.01a.647.647 0 0 0-.91.06c-3.81 4.36-11.03 7.23-20.37 8.11v-.83l.29-.06c1.6-.53 3.03-1.49 4.13-2.78 1.3-1.49 2.25-3.26 2.76-5.17l.03-.12c.06-.26.08-.54.06-.81-.03-.17-2.97-17.03-3.52-18.05-.72-1.34-5.1-2.38-6.07-2.38h-.14c-.97 0-5.36 1.04-6.08 2.38-.55 1.03-3.48 17.89-3.52 18.05-.03.27 0 .55.07.81 0 .03 0 .08.02.12.52 1.91 1.46 3.68 2.77 5.17a9.3 9.3 0 0 0 4.11 2.78l.3.06v.83c-9.34-.88-16.56-3.75-20.38-8.11a.632.632 0 0 0-.89-.07l-.01.01c-.27.23-.3.63-.07.9 3.62 4.13 10.02 6.98 18.26 8.19-10.37-.35-16.92-1.65-20.8-6.1a.647.647 0 0 0-.91-.06c-.27.23-.29.63-.07.89 4.19 4.79 11 6.18 21.72 6.54-.33.03-.67.05-.99.07-9.99.67-16.02 1.08-22.37-3.99a.656.656 0 0 0-.9.1c-.22.27-.18.68.1.9 4.66 3.72 9.24 4.65 14.92 4.65 2.52 0 5.27-.18 8.33-.38 1.49-.1 3.06-.21 4.71-.3.34-.02.6-.3.6-.64v-3.17l.2.04c.28.03.57.04.86.04h.14c.29 0 .58-.01.86-.04l.19-.04v3.17c0 .34.26.61.59.64 1.67.09 3.24.2 4.73.3 3.07.21 5.81.38 8.34.38 5.68 0 10.26-.92 14.92-4.65.28-.22.32-.62.1-.9M93.66 43.64c1.39-.78 2.92-1.29 4.5-1.48h.14c1.59.19 3.12.7 4.51 1.48.41 1.18 2.28 11.51 3.09 16.07-2.91-1.49-7.55-1.58-7.6-1.58h-.14c-.06 0-4.69.09-7.6 1.58.8-4.55 2.68-14.89 3.09-16.07m4.65 24.87h-.14c-1.05 0-2.09-.24-3.02-.72a2.809 2.809 0 0 0 2.17-2.68 2.248 2.248 0 0 0-2.28-2.19 1.82 1.82 0 0 0-1.86 1.78c.03.49.45.86.94.83.45-.03.81-.38.83-.83 0-.05.04-.1.09-.1h.01c.28 0 .51.22.51.49 0 .6-.5 1.08-1.1 1.08-1.12 0-2.34-1.15-3.06-2.28-.38-.67-.68-1.37-.91-2.1 1.53-1.5 6.18-1.99 7.7-1.99h.14c1.53 0 6.17.5 7.7 1.99-.23.73-.53 1.43-.9 2.1-.72 1.13-1.95 2.28-3.06 2.28-.61.01-1.11-.47-1.12-1.08 0-.28.24-.5.52-.5.05 0 .1.04.1.1.02.48.43.86.92.84.45-.02.81-.38.84-.84-.02-1.01-.85-1.8-1.86-1.78a2.24 2.24 0 0 0-2.28 2.19c.02 1.28.91 2.39 2.16 2.68-.94.48-1.97.72-3.02.72" class="cls-3"></path><path id="Path_27" d="M144.89 276.58a2.912 2.912 0 0 0-3.05-2.78 2.912 2.912 0 0 0-2.78 2.78c0 1.54 1.98 2.45 2.91 5.19a7.816 7.816 0 0 0 2.92-5.19" class="cls-3"></path><path id="Path_28" d="M125.74 281.77c.94-2.75 2.92-3.65 2.92-5.2a2.912 2.912 0 0 0-3.05-2.78 2.912 2.912 0 0 0-2.78 2.78 7.786 7.786 0 0 0 2.91 5.2" class="cls-3"></path><path id="Path_29" d="M113.84 281.92c.72-2.11 2.24-2.8 2.24-4a2.247 2.247 0 0 0-4.49 0c.19 1.58 1 3.02 2.25 4" class="cls-3"></path><path id="Path_30" d="M153.27 275.77c-1.21-.03-2.22.93-2.25 2.14 0 1.19 1.52 1.89 2.25 4a6.015 6.015 0 0 0 2.25-4 2.214 2.214 0 0 0-2.25-2.15" class="cls-3"></path><path id="Path_31" d="M54.52 281.77c.94-2.75 2.92-3.65 2.92-5.2a2.912 2.912 0 0 0-3.05-2.78 2.912 2.912 0 0 0-2.78 2.78 7.786 7.786 0 0 0 2.91 5.2" class="cls-3"></path><path id="Path_32" d="M73.68 276.58a2.912 2.912 0 0 0-3.05-2.78 2.912 2.912 0 0 0-2.78 2.78c0 1.54 1.97 2.45 2.91 5.19a7.794 7.794 0 0 0 2.92-5.19" class="cls-3"></path><path id="Path_33" d="M82.66 275.77a2.2 2.2 0 0 0-2.25 2.15c0 1.19 1.52 1.89 2.25 4a6.025 6.025 0 0 0 2.24-4 2.198 2.198 0 0 0-2.24-2.15" class="cls-3"></path><path id="Path_34" d="M43.23 281.92c.73-2.11 2.25-2.8 2.25-4a2.24 2.24 0 0 0-2.34-2.15c-1.17.05-2.1.99-2.15 2.15.19 1.58 1 3.01 2.25 4" class="cls-3"></path></g></g></g><g><path d="M0 396.91h7.3v18.62h2.34l6.15-18.67h7.53l-7.99 18.36 7.43 23.3h-7.89l-5.23-17.53H7.3v17.53H0v-41.6ZM26.67 396.91h7.3v17.63h8.31v-17.63h7.3v41.6h-7.3v-17.27h-8.31v17.27h-7.3v-41.6ZM60.76 425.88l-8.35-28.97h7.39l5.14 21.27h.92l4.68-21.27h6.33l-8.54 29.12v12.48h-7.34l-.23-12.64ZM79.72 396.91h17.76v7.12H87.02v10.24h9.09v6.81h-9.09v10.3h10.46v7.12H79.72v-41.6ZM102.16 396.91h11.52l5.05 33.65h.87l-.32-7.49v-26.16h5.42v41.6h-11.11l-5.55-33.65h-.78l.32 7.49v26.16h-5.42v-41.6ZM135.71 404.25h-7.25v-7.33h21.8v7.33h-7.25v34.27h-7.3v-34.27ZM167.75 415.53c4.36 2.5 6.84 5.62 6.84 11.55 0 6.92-3.63 11.91-11.15 11.91s-11.75-5.1-11.11-14.15h6.47c-.18 5.72 1.06 7.75 4.64 7.75 2.94 0 4.5-1.04 4.5-3.64v-1.46c0-2.08-1.01-3.22-3.12-4.42l-5.19-2.96c-3.9-2.18-7.11-5.77-7.11-12.01 0-7.07 3.67-11.65 10.88-11.65s11.11 4.84 10.28 14.46h-6.47c.5-6.08-1.19-8.06-4.13-8.06s-3.9 1.3-3.9 3.69v1.4c0 2.29 1.47 3.59 3.63 4.78l4.96 2.81ZM179.45 396.91h17.76v7.12h-10.46v10.24h9.09v6.81h-9.09v10.3h10.46v7.12h-17.76v-41.6Z" class="cls-3"></path></g><g><path d="M9.64 445.89v1.61H2.13v4.56h6.59v1.61H2.13v6.57H.22V445.9h9.42ZM19.41 450.24c.29-.9.72-1.7 1.3-2.4s1.29-1.25 2.15-1.67c.86-.41 1.85-.62 2.99-.62s2.14.21 2.99.62c.86.42 1.57.97 2.15 1.67s1.01 1.5 1.3 2.4.43 1.84.43 2.82-.14 1.92-.43 2.82-.72 1.7-1.3 2.4-1.29 1.25-2.15 1.66c-.86.41-1.85.61-2.99.61s-2.14-.2-2.99-.61c-.86-.41-1.57-.96-2.15-1.66s-1.01-1.5-1.3-2.4c-.29-.9-.43-1.84-.43-2.82s.14-1.92.43-2.82Zm1.76 4.96c.19.7.48 1.34.88 1.9.4.56.92 1.01 1.55 1.36s1.38.51 2.25.51 1.62-.17 2.25-.51c.63-.34 1.14-.79 1.55-1.36.4-.56.7-1.2.88-1.9.19-.7.28-1.42.28-2.14s-.09-1.44-.28-2.14c-.19-.7-.48-1.34-.88-1.9-.4-.56-.92-1.01-1.55-1.36-.63-.34-1.38-.51-2.25-.51s-1.62.17-2.25.51-1.14.79-1.55 1.36c-.4.56-.7 1.2-.88 1.9-.19.7-.28 1.42-.28 2.14s.09 1.44.28 2.14ZM53.05 459.18c-.98.92-2.37 1.38-4.18 1.38s-3.29-.44-4.33-1.32c-1.04-.88-1.56-2.27-1.56-4.19v-9.16h1.91v9.16c0 1.28.34 2.26 1.02 2.92.68.66 1.67.99 2.95.99 1.22 0 2.15-.33 2.78-.99.64-.66.95-1.64.95-2.92v-9.16h1.91v9.16c0 1.83-.49 3.21-1.47 4.13ZM67.61 445.89l7.55 11.63h.04v-11.63h1.81v14.34h-2.09l-7.49-11.51h-.04v11.51h-1.81v-14.34h2.03ZM93.05 445.89c2.21 0 3.91.56 5.1 1.69 1.19 1.12 1.79 2.84 1.79 5.14 0 1.2-.13 2.27-.4 3.2s-.68 1.71-1.25 2.35c-.56.64-1.28 1.12-2.15 1.46-.87.33-1.9.5-3.09.5h-4.92v-14.34h4.92Zm.16 12.73c.21 0 .48-.02.8-.05.32-.03.66-.11 1.02-.24s.72-.31 1.07-.55c.36-.24.67-.57.95-.98.28-.42.51-.93.69-1.56.18-.62.27-1.38.27-2.26s-.08-1.62-.25-2.3c-.17-.68-.44-1.25-.82-1.73a3.54 3.54 0 0 0-1.48-1.08c-.6-.25-1.35-.37-2.23-.37h-3.21v11.13h3.17ZM116.31 445.89l5.6 14.34h-2.11l-1.57-4.32h-6.06l-1.61 4.32h-1.95l5.58-14.34h2.11Zm1.33 8.41-2.39-6.69h-.04l-2.43 6.69h4.86ZM127.97 447.5v-1.61h11.47v1.61h-4.78v12.73h-1.91V447.5h-4.78ZM151.05 445.89v14.34h-1.91v-14.34h1.91ZM161.92 450.24c.29-.9.72-1.7 1.3-2.4a6.36 6.36 0 0 1 2.15-1.67c.86-.41 1.85-.62 2.99-.62s2.14.21 2.99.62c.86.42 1.57.97 2.15 1.67.58.7 1.01 1.5 1.29 2.4s.43 1.84.43 2.82-.14 1.92-.43 2.82-.72 1.7-1.29 2.4c-.58.7-1.29 1.25-2.15 1.66-.86.41-1.85.61-2.99.61s-2.14-.2-2.99-.61c-.86-.41-1.57-.96-2.15-1.66-.58-.7-1.01-1.5-1.3-2.4s-.43-1.84-.43-2.82.14-1.92.43-2.82Zm1.76 4.96c.19.7.48 1.34.88 1.9.4.56.92 1.01 1.55 1.36s1.38.51 2.25.51 1.62-.17 2.25-.51 1.14-.79 1.55-1.36c.4-.56.7-1.2.88-1.9s.28-1.42.28-2.14-.09-1.44-.28-2.14-.48-1.34-.88-1.9c-.4-.56-.92-1.01-1.55-1.36s-1.38-.51-2.25-.51-1.62.17-2.25.51-1.14.79-1.55 1.36c-.4.56-.7 1.2-.88 1.9s-.28 1.42-.28 2.14.09 1.44.28 2.14ZM187.59 445.89l7.55 11.63h.04v-11.63h1.81v14.34h-2.09l-7.49-11.51h-.04v11.51h-1.81v-14.34h2.03Z" class="cls-3"></path></g></svg>